<?xml version="1.0" standalone="no"?>
<!DOCTYPE svg PUBLIC "-//W3C//DTD SVG 20010904//EN"
 "http://www.w3.org/TR/2001/REC-SVG-20010904/DTD/svg10.dtd">
<svg version="1.0" xmlns="http://www.w3.org/2000/svg"
 width="500.000000pt" height="500.000000pt" viewBox="0 0 500.000000 500.000000"
 preserveAspectRatio="xMidYMid meet">

<g transform="translate(0.000000,500.000000) scale(0.100000,-0.100000)"
fill="#000000" stroke="none">
<path d="M2958 3441 c-73 -71 -196 -197 -273 -281 -77 -83 -189 -199 -250
-258 -60 -59 -206 -202 -324 -318 l-215 -212 227 -1 227 -2 0 133 0 132 -42
43 -42 43 117 0 117 0 0 -175 0 -175 55 0 55 0 0 273 0 273 -35 34 c-19 18
-32 37 -29 42 3 5 49 8 102 7 l97 -2 5 -311 5 -311 45 0 45 0 3 389 2 390 -23
25 c-12 14 -31 36 -41 49 l-19 22 121 0 122 0 0 -440 0 -440 45 0 45 0 0 600
c0 330 -2 600 -4 600 -3 0 -65 -58 -138 -129z"/>
<path d="M1396 1912 c-16 -48 -31 -93 -34 -99 -2 -8 4 -13 16 -13 12 0 23 9
27 20 5 15 15 20 42 20 26 0 36 -5 40 -20 3 -13 14 -20 29 -20 l24 0 -19 48
c-10 26 -26 71 -35 100 -14 41 -22 52 -39 52 -19 0 -26 -14 -51 -88z m63 -2
c9 -28 8 -30 -14 -30 -22 0 -23 2 -14 30 6 17 12 30 14 30 2 0 8 -13 14 -30z"/>
<path d="M1610 1900 c0 -92 1 -100 20 -100 16 0 19 8 22 57 l3 57 38 -57 c56
-85 67 -78 67 43 0 92 -1 100 -20 100 -16 0 -19 -8 -22 -57 l-3 -58 -35 57
c-21 34 -42 58 -52 58 -16 0 -18 -11 -18 -100z"/>
<path d="M1860 1900 c0 -92 1 -100 19 -100 16 0 20 8 23 37 4 50 21 51 44 3
14 -29 25 -40 42 -40 22 0 22 0 -9 61 -31 62 -31 62 -12 88 34 47 35 51 14 51
-13 0 -33 -16 -51 -42 l-30 -41 0 41 c0 35 -3 42 -20 42 -19 0 -20 -7 -20
-100z"/>
<path d="M2082 1920 c6 -95 22 -120 78 -120 60 0 80 30 80 123 0 70 -2 77 -20
77 -17 0 -19 -8 -22 -76 -2 -59 -7 -79 -20 -87 -32 -21 -48 8 -48 89 0 73 0
74 -26 74 l-27 0 5 -80z"/>
<path d="M2340 1900 c0 -93 1 -100 20 -100 17 0 20 7 20 40 0 22 5 40 11 40 6
0 18 -18 26 -40 12 -31 21 -40 40 -40 l23 0 -20 40 c-19 37 -19 43 -5 63 37
52 6 97 -68 97 l-47 0 0 -100z m88 42 c4 -23 -18 -38 -42 -29 -9 4 -12 15 -8
32 6 34 45 32 50 -3z"/>
<path d="M2738 1980 c-39 -30 -53 -80 -34 -123 17 -41 41 -57 88 -57 54 0 78
23 78 76 l0 44 -41 0 c-33 0 -40 -3 -35 -16 3 -9 6 -18 6 -20 0 -2 7 -4 15 -4
23 0 18 -38 -5 -45 -34 -11 -70 20 -70 58 0 60 37 84 98 63 21 -7 23 -5 20 16
-3 20 -9 23 -49 26 -34 2 -52 -2 -71 -18z"/>
<path d="M2985 1977 c-20 -16 -28 -35 -32 -69 -5 -42 -3 -50 25 -78 66 -65
172 -22 172 70 0 86 -101 133 -165 77z m113 -34 c26 -36 0 -113 -39 -113 -15
0 -53 21 -61 34 -15 21 -8 66 13 87 24 24 65 20 87 -8z"/>
<path d="M3233 1919 c6 -95 22 -119 76 -119 64 0 81 28 81 129 0 64 -2 71 -20
71 -17 0 -19 -8 -22 -76 -2 -59 -7 -79 -20 -87 -32 -21 -48 8 -48 89 0 73 0
74 -26 74 l-27 0 6 -81z"/>
<path d="M3490 1900 c0 -93 1 -100 20 -100 17 0 20 7 20 40 0 22 4 40 10 40 5
0 19 -18 30 -40 13 -26 27 -40 40 -40 19 0 19 1 0 42 -17 37 -17 45 -4 59 19
21 18 64 -2 83 -10 10 -33 16 -65 16 l-49 0 0 -100z m85 40 c0 -18 -6 -26 -22
-28 -20 -3 -23 1 -23 28 0 27 3 31 23 28 16 -2 22 -10 22 -28z"/>
<path d="M2541 1596 c-7 -8 -18 -37 -25 -63 -7 -26 -16 -58 -20 -70 -5 -16 -3
-23 6 -23 9 0 22 30 36 82 11 45 20 84 18 85 -2 2 -9 -3 -15 -11z"/>
<path d="M2815 1598 c-40 -111 -43 -128 -18 -128 9 0 14 3 11 6 -4 3 2 34 12
70 10 35 14 64 9 64 -5 0 -12 -6 -14 -12z"/>
<path d="M2930 1595 c0 -8 5 -15 10 -15 6 0 10 7 10 15 0 8 -4 15 -10 15 -5 0
-10 -7 -10 -15z"/>
<path d="M1920 1548 c-7 -29 -17 -59 -23 -65 -7 -10 -4 -13 10 -13 16 0 23 13
36 60 20 72 20 70 3 70 -9 0 -19 -20 -26 -52z"/>
<path d="M2570 1590 c0 -5 5 -10 10 -10 6 0 10 5 10 10 0 6 -4 10 -10 10 -5 0
-10 -4 -10 -10z"/>
<path d="M1980 1567 c0 -13 -6 -29 -12 -37 -9 -10 -6 -9 12 2 29 18 40 58 16
58 -10 0 -16 -9 -16 -23z"/>
<path d="M2400 1566 c-5 -13 -12 -40 -15 -60 -6 -30 -4 -36 9 -36 10 0 15 4
12 9 -3 5 1 28 9 51 18 50 18 60 5 60 -6 0 -15 -11 -20 -24z"/>
<path d="M2091 1546 c-17 -20 -19 -68 -3 -73 7 -3 12 5 12 22 0 14 5 35 10 46
12 22 -2 26 -19 5z"/>
<path d="M2130 1534 c0 -14 -5 -35 -11 -46 -9 -16 -8 -19 3 -16 18 6 41 56 34
74 -9 23 -26 16 -26 -12z"/>
<path d="M2242 1518 c-6 -23 -9 -44 -6 -47 9 -9 23 15 29 52 10 52 -10 48 -23
-5z"/>
<path d="M2286 1545 c4 -8 10 -12 15 -9 14 8 10 24 -6 24 -9 0 -12 -6 -9 -15z"/>
<path d="M2641 1546 c-17 -20 -19 -68 -3 -73 7 -3 12 5 12 22 0 14 5 35 10 46
12 22 -2 26 -19 5z"/>
<path d="M2680 1534 c0 -14 -5 -35 -11 -46 -9 -16 -8 -19 3 -16 18 6 41 56 34
74 -9 23 -26 16 -26 -12z"/>
<path d="M2913 1548 c-1 -7 -4 -28 -8 -45 -6 -26 -4 -33 7 -33 8 0 15 6 15 13
1 6 4 27 8 45 6 25 4 32 -7 32 -8 0 -15 -6 -15 -12z"/>
<path d="M3030 1541 c-12 -23 -14 -71 -2 -71 4 0 12 20 18 45 11 46 3 60 -16
26z"/>
<path d="M3075 1528 c-4 -18 -12 -39 -17 -45 -7 -9 -7 -13 0 -13 15 0 42 40
42 62 0 31 -18 28 -25 -4z"/>
</g>
</svg>
